<?xml version="1.0" standalone="no"?>
<!DOCTYPE svg PUBLIC "-//W3C//DTD SVG 20010904//EN"
 "http://www.w3.org/TR/2001/REC-SVG-20010904/DTD/svg10.dtd">
<svg version="1.0" xmlns="http://www.w3.org/2000/svg"
 width="630.000000pt" height="630.000000pt" viewBox="0 0 630.000000 630.000000"
 preserveAspectRatio="xMidYMid meet">
<metadata>
Created by potrace 1.15, written by Peter Selinger 2001-2017
</metadata>
<g transform="translate(0.000000,630.000000) scale(0.100000,-0.100000)"
fill="#000000" stroke="none">
<path d="M0 3150 l0 -3150 3150 0 3150 0 0 3150 0 3150 -3150 0 -3150 0 0
-3150z m4075 1719 c56 -17 113 -22 285 -29 169 -6 242 -13 340 -33 195 -41
255 -62 286 -102 15 -20 41 -39 62 -45 164 -52 317 -181 392 -332 29 -58 49
-88 60 -88 26 0 130 -56 174 -93 l38 -33 -58 -44 c-33 -24 -124 -96 -204 -160
-80 -63 -169 -133 -197 -155 -57 -42 -63 -55 -98 -215 l-16 -75 -57 -17 c-31
-9 -82 -24 -114 -33 -56 -16 -56 -16 -84 -80 -27 -65 -27 -65 -68 -65 -99 0
-113 -7 -144 -74 -17 -33 -47 -78 -68 -99 -38 -39 -101 -77 -127 -77 -10 0
-15 -14 -16 -47 -1 -64 -25 -151 -60 -221 -61 -123 -66 -234 -12 -347 54 -117
140 -214 274 -309 37 -26 67 -52 67 -56 0 -5 -21 -27 -47 -49 -216 -185 -547
-207 -947 -64 -76 27 -100 32 -106 22 -13 -20 0 -80 31 -142 23 -48 25 -57 11
-51 -64 29 -192 66 -258 75 -275 38 -563 -110 -769 -395 l-20 -28 -54 22
c-167 65 -305 233 -372 450 -13 41 -29 80 -37 87 -25 21 -104 25 -182 9 -154
-31 -352 -155 -550 -343 l-102 -97 -19 25 c-63 82 -105 233 -94 343 5 58 4 68
-8 63 -8 -3 -52 -11 -97 -18 -107 -15 -267 -7 -342 19 -55 18 -168 80 -168 92
0 3 21 15 48 27 26 12 74 44 107 70 l60 49 7 69 c4 39 14 99 24 135 20 77 89
230 134 295 18 26 30 47 28 49 -1 1 -45 18 -97 37 -101 36 -282 128 -288 145
-2 6 14 16 36 22 41 13 127 67 173 110 l28 26 -61 34 c-64 36 -199 156 -199
177 0 6 26 18 58 25 114 25 261 83 450 176 105 53 192 99 192 102 0 4 -11 17
-23 29 -28 26 -47 84 -47 142 l0 41 80 0 c133 0 298 41 452 112 80 37 88 44
94 74 8 45 -10 123 -45 193 l-30 59 31 6 c78 16 173 18 269 5 149 -18 173 -18
177 4 6 31 -19 77 -55 102 -40 27 -37 30 52 59 125 40 286 37 411 -8 64 -23
69 -24 77 -8 5 9 46 53 92 98 70 69 99 89 196 137 157 78 218 97 302 97 58 0
97 9 216 49 267 90 400 108 526 70z"/>
<path d="M3915 4770 c-147 -13 -296 -51 -429 -109 -46 -20 -52 -21 -93 -7 -42
14 -48 14 -116 -11 -98 -35 -200 -87 -272 -138 -72 -51 -172 -155 -200 -208
-13 -25 -25 -36 -35 -33 -8 3 -55 20 -105 37 -74 26 -106 32 -180 33 -132 2
-136 -2 -80 -71 53 -64 79 -113 89 -162 5 -29 4 -32 -12 -26 -60 23 -196 56
-285 69 -97 15 -227 21 -227 12 0 -2 11 -28 25 -57 26 -57 41 -144 31 -183 -5
-21 -20 -28 -118 -55 -202 -55 -231 -62 -372 -89 l-138 -28 28 -33 c15 -19 50
-44 77 -56 l49 -23 -109 -62 c-144 -81 -404 -208 -527 -256 l-98 -38 23 -20
c13 -10 49 -30 79 -45 46 -21 70 -25 146 -26 l92 0 -19 -27 c-38 -53 -136
-131 -255 -204 -17 -10 -16 -12 8 -28 60 -39 219 -76 329 -76 l40 0 -46 -47
c-115 -119 -229 -347 -279 -557 l-7 -29 37 33 c45 39 109 69 147 70 l28 0 -21
-27 c-34 -43 -127 -109 -229 -162 l-94 -49 49 -10 c147 -32 323 -20 479 33 42
14 77 25 79 25 2 0 -7 -27 -21 -61 -46 -115 -50 -252 -10 -350 l12 -31 65 78
c144 172 365 290 626 333 59 10 81 10 129 -3 32 -8 62 -19 68 -25 5 -5 20 -47
32 -93 41 -156 106 -279 199 -376 86 -90 87 -90 127 -35 185 258 469 397 742
363 45 -5 98 -14 117 -20 19 -5 35 -10 35 -10 0 0 -1 26 -3 58 -3 42 2 70 15
97 29 61 40 63 134 23 313 -133 616 -163 853 -86 33 11 62 21 64 22 1 2 -42
47 -97 102 -243 244 -306 468 -182 654 35 54 50 112 51 196 0 70 9 82 128 183
74 64 103 114 111 196 l6 60 74 5 75 5 20 62 20 62 55 12 c31 6 90 19 131 28
l75 17 15 81 15 82 70 53 c39 30 146 112 239 183 l170 129 -60 13 c-147 34
-301 55 -446 60 -87 3 -158 8 -158 10 0 2 4 13 10 23 13 25 3 27 -138 36 -62
4 -111 8 -109 10 7 8 314 54 470 71 92 10 167 22 167 26 0 16 -62 67 -124 102
-33 19 -110 50 -171 71 -60 20 -123 46 -140 59 -38 28 -129 58 -276 91 -93 21
-149 26 -303 30 -178 5 -191 6 -231 29 -23 14 -46 24 -51 24 -5 -1 -45 -5 -89
-9z m-227 -125 c-106 -62 -198 -157 -248 -257 -22 -44 -40 -86 -40 -92 0 -7
-26 -25 -57 -40 -32 -15 -74 -40 -93 -55 -59 -46 -64 -48 -56 -15 14 53 81
179 127 236 85 106 209 191 355 243 97 34 99 31 12 -20z m776 10 c55 -8 101
-17 104 -19 2 -3 -16 -10 -39 -16 -69 -19 -119 -48 -179 -106 l-57 -54 -89 0
c-179 0 -429 -32 -527 -66 -22 -8 -42 -12 -45 -9 -9 8 50 85 97 127 78 68 211
126 339 148 80 13 292 11 396 -5z m-1216 -132 c-97 -87 -155 -170 -190 -272
-19 -55 -23 -86 -23 -191 1 -118 3 -131 37 -230 20 -57 36 -105 35 -106 -1 -1
-30 -4 -64 -7 -55 -4 -64 -2 -76 17 -8 11 -42 49 -75 83 -58 59 -60 63 -67
128 -13 121 13 243 73 340 33 54 66 89 135 142 57 44 220 133 245 133 6 0 -7
-17 -30 -37z m-583 -309 c79 -39 85 -48 74 -114 -5 -30 -6 -77 -2 -104 3 -27
2 -47 -3 -45 -53 23 -124 74 -124 89 0 52 -25 125 -57 167 l-35 46 46 -6 c26
-4 71 -19 101 -33z m1212 10 l52 -7 -83 -81 c-132 -129 -191 -261 -166 -371 6
-26 15 -55 20 -64 6 -13 -5 -10 -48 11 -82 40 -171 60 -296 67 l-110 6 -23 59
c-43 113 -43 114 34 175 75 60 177 111 221 111 18 0 38 10 53 26 33 36 55 46
124 60 69 14 147 17 222 8z m608 -134 c-30 -31 -50 -42 -94 -51 -131 -27 -271
-110 -344 -205 -23 -30 -48 -54 -55 -54 -22 0 17 57 87 126 71 70 193 138 271
150 27 4 61 20 88 41 24 18 53 33 65 33 19 0 16 -5 -18 -40z m-2226 -41 c199
-33 430 -148 564 -280 58 -58 66 -85 16 -59 -17 10 -20 9 -17 -1 7 -22 117
-42 166 -30 23 6 69 11 102 11 59 0 59 0 65 -33 10 -49 70 -86 129 -80 29 4
51 1 64 -8 17 -13 12 -14 -47 -16 -56 -1 -76 3 -116 25 -33 18 -51 35 -55 52
-5 21 -13 26 -45 28 -22 2 -57 -1 -77 -8 -39 -11 -50 -9 -162 25 -45 14 -47
13 -35 -2 18 -21 71 -43 103 -43 32 0 64 -42 111 -144 l36 -77 35 26 c89 68
202 87 298 51 48 -18 53 -36 10 -36 -13 0 -24 -4 -24 -10 0 -5 -7 -10 -15 -10
-8 0 -19 -9 -25 -20 -13 -25 -13 -25 45 1 33 15 60 20 86 16 25 -3 37 -1 33 5
-4 6 1 8 12 4 61 -18 120 -26 204 -26 72 0 105 -5 138 -20 31 -14 55 -18 81
-14 27 4 41 2 50 -10 12 -14 17 -13 55 13 22 15 51 31 63 35 21 7 22 6 11 -24
-6 -18 -8 -56 -5 -86 5 -53 5 -55 -25 -70 l-31 -16 7 27 7 27 -56 -7 c-47 -5
-55 -4 -55 10 0 24 -77 55 -135 54 -41 -1 -45 -2 -23 -9 39 -12 108 -52 108
-64 0 -5 -7 -18 -17 -28 -24 -27 -14 -29 51 -12 32 8 61 13 64 10 3 -3 0 -18
-7 -32 -11 -25 -10 -26 11 -20 64 18 79 18 98 1 24 -22 25 -56 4 -118 -23 -68
-40 -78 -49 -27 -4 22 -10 40 -14 40 -4 0 -31 -25 -60 -55 -30 -30 -59 -55
-65 -55 -7 0 -10 23 -8 70 2 38 1 70 -2 70 -4 0 -42 -22 -86 -50 -44 -28 -82
-50 -84 -50 -2 0 16 46 40 101 24 56 44 104 44 106 0 3 -17 -9 -37 -25 -21
-16 -58 -40 -83 -54 -46 -26 -148 -63 -155 -56 -8 8 94 134 119 148 34 18 33
28 -1 23 -45 -7 -216 -65 -240 -80 -12 -8 -28 -13 -35 -11 -19 7 99 120 147
143 22 10 60 24 85 30 l45 12 -55 14 c-31 8 -96 13 -150 13 -91 -1 -93 -1 -55
12 22 7 50 13 63 13 30 1 28 19 -3 27 -15 4 -45 -3 -81 -17 -49 -21 -54 -25
-38 -36 17 -12 17 -13 -1 -13 -10 0 -65 -16 -122 -36 l-104 -35 -54 49 c-29
27 -82 62 -117 77 -55 24 -69 37 -113 98 -150 210 -385 403 -586 482 l-62 25
5 -78 c6 -90 31 -153 82 -210 20 -22 36 -43 36 -47 0 -4 27 -45 60 -91 33 -46
57 -84 54 -84 -24 0 -173 132 -196 174 -4 8 -17 56 -28 108 -19 93 -48 199
-69 251 -6 16 -11 30 -11 33 0 5 9 4 129 -17z m-155 -351 c44 -130 107 -237
188 -322 l67 -70 -20 -23 c-29 -30 -141 -87 -220 -111 -36 -11 -110 -26 -165
-32 -54 -7 -101 -13 -102 -15 -12 -11 70 -134 117 -177 31 -28 51 -53 45 -55
-6 -2 -51 -27 -100 -55 -97 -55 -206 -140 -271 -211 -52 -56 -133 -166 -133
-179 0 -7 36 -8 103 -4 56 3 167 8 247 11 80 3 189 8 242 11 l97 6 -36 -109
-36 -109 -82 -12 c-193 -28 -371 -117 -518 -261 l-78 -75 7 44 c17 110 78 261
133 324 15 18 15 19 -4 11 -96 -38 -270 -81 -409 -101 l-49 -7 106 102 c143
138 263 289 244 307 -8 8 -142 -38 -210 -73 -37 -18 -91 -50 -119 -70 -48 -35
-50 -36 -44 -12 18 61 99 212 155 287 75 101 193 220 289 291 77 57 89 70 45
47 -92 -46 -332 -96 -464 -96 l-64 0 97 52 c124 65 246 161 303 239 25 34 45
66 45 71 0 19 -316 -12 -385 -38 -46 -17 7 19 150 101 167 96 405 218 505 260
83 34 93 45 44 42 -21 -1 -68 0 -104 2 l-65 4 85 12 c109 16 197 40 263 70 29
13 55 22 60 22 4 -1 22 -46 41 -99z m1513 -72 c87 -30 105 -39 171 -88 56 -42
72 -42 72 0 1 27 1 27 35 -13 19 -22 39 -52 44 -67 8 -23 6 -27 -13 -32 -39
-10 -95 14 -194 80 -67 45 -119 72 -169 87 -56 16 -73 25 -73 39 0 25 41 23
127 -6z m-714 -290 c72 -35 154 -118 189 -191 15 -33 28 -66 28 -72 0 -18 15
-16 30 3 18 20 99 68 106 61 3 -3 1 -14 -4 -24 -17 -34 -22 -83 -9 -89 7 -2
61 13 120 35 59 21 107 35 107 30 0 -6 -7 -26 -15 -46 -25 -59 -22 -63 43 -63
37 0 77 9 115 24 55 23 57 23 57 5 0 -11 -7 -36 -15 -56 -8 -19 -15 -40 -15
-46 0 -17 100 1 151 27 54 29 59 25 59 -50 l0 -44 37 15 c20 9 52 27 71 42
l34 26 -7 -24 c-4 -13 -14 -39 -21 -58 -8 -18 -14 -36 -14 -38 0 -9 65 9 89
24 l24 16 -23 -34 c-13 -19 -50 -61 -82 -94 -61 -65 -98 -132 -98 -180 0 -16
10 -50 21 -75 l21 -45 18 40 c19 44 35 61 64 67 15 2 22 -8 35 -47 31 -93 110
-218 194 -307 32 -34 24 -35 -85 -13 -143 30 -267 80 -368 148 -25 18 -73 48
-106 67 l-61 35 26 50 c21 41 26 63 26 125 -1 41 -4 84 -9 95 -6 17 -10 14
-27 -25 -11 -25 -31 -53 -44 -63 -24 -18 -25 -17 -25 3 0 44 -52 110 -86 110
-6 0 -27 -11 -47 -25 l-36 -24 -31 30 c-24 25 -35 29 -59 24 -27 -6 -30 -3
-41 30 -20 60 -58 64 -141 18 -3 -2 -6 10 -7 27 -2 76 -42 144 -91 155 -36 8
-125 -25 -224 -82 -186 -107 -240 -130 -398 -168 -144 -34 -528 -114 -629
-130 l-45 -7 25 27 c72 80 380 247 615 335 77 28 198 80 269 115 127 63 129
63 167 50 21 -8 55 -25 76 -39 20 -14 39 -24 41 -21 8 7 -30 120 -50 147 -27
38 -68 58 -122 58 -43 0 -138 -29 -181 -55 -182 -111 -338 -147 -480 -110 -45
11 -47 13 -17 14 67 2 189 34 250 64 35 17 99 60 144 95 44 35 102 75 128 88
115 58 241 66 333 20z m131 -510 c13 -12 31 -37 40 -53 l15 -30 -72 -63 c-40
-34 -92 -71 -117 -82 -62 -27 -296 -107 -345 -118 l-40 -8 75 70 c89 84 384
308 406 308 8 0 25 -11 38 -24z m195 -130 c20 -24 -88 -110 -206 -166 -57 -27
-103 -48 -103 -46 0 2 35 32 78 67 202 170 208 173 231 145z"/>
</g>
</svg>
